<?xml version="1.0" encoding="UTF-8"?>
<svg id="Layer_2" data-name="Layer 2" xmlns="http://www.w3.org/2000/svg" viewBox="0 0 465.26 617.56">
  <defs>
    <style>
      .cls-1 {
        fill: #fff;
      }
    </style>
  </defs>
  <g id="Layer_1-2" data-name="Layer 1">
    <path class="cls-1" d="m465.24,308.82c0-69.35.05-138.71-.02-208.06-.03-27.01-8.95-50.68-27.77-70.21-35.69-37.03-92.53-40.83-133.11-9.03-41.85,32.79-83.62,65.68-125.42,98.53-46.39,36.45-92.75,72.93-139.17,109.35-52.78,41.41-53.08,116.94-.41,158.4,88.13,69.37,176.32,138.68,264.59,207.88,58.71,46.03,142.99,15.83,158.98-56.99,1.63-7.42,2.22-15.2,2.24-22.82.17-69.02.1-138.04.1-207.06Z"/>
  </g>
</svg>