<?xml version="1.0" encoding="UTF-8"?><svg id="b" xmlns="http://www.w3.org/2000/svg" viewBox="0 0 45.17 21.93"><g id="c"><path d="M31.33.82c-1.64-.2-3.45-.32-5.41-.32-3.26,0-6.47.26-9.54.79-2.99.51-5.7,1.24-8.05,2.17-3.37,1.33-5.73,2.95-6.92,4.74-.15.23-.28.45-.4.68-.33.68-.51,1.37-.51,2.07s.17,1.4.5,2.07c.24-.3.43-.64.56-1.02-.11-.35-.16-.7-.16-1.06s.05-.71.16-1.06c.1-.31.23-.61.41-.92.31-.54.76-1.07,1.33-1.6,1.26-1.15,3.06-2.19,5.35-3.1,4.67-1.84,10.97-2.9,17.26-2.89,1.95,0,3.79.11,5.41.3,0-.36,0-.66,0-.87Z" fill="#ffffff" stroke="#ffffff" stroke-miterlimit="10"/><path d="M42.38,3.94c0,.42.02,1.09,0,1.5.43.41,1.94,1.91,1.37,5.52-.45,2.84-2.12,5.14-4.47,6.72-2.82,1.89-7.32,2.85-13.37,2.85-6.3,0-12.51-1.03-17.18-2.88-.53-.21.28.1-.21-.08l-.47.46q-.06.07-.21.22c.38.17.07.03.48.19,2.35.93,5.06,1.66,8.05,2.18,3.07.53,6.28.8,9.54.8,6.24,0,10.91-1.01,13.88-3,2.61-1.76,4.45-4.32,4.79-7.49.41-3.86-.86-5.78-2.2-6.99Z" fill="#ffffff" stroke="#ffffff" stroke-miterlimit="10"/></g></svg>